#N canvas 1200 777 959 522 12;
#X obj 59 74 adc~ 1 2;
#X obj 341 5 adc~ 3 4 5 6;
#X obj 465 6 adc~ 7 8 9 10;
#X obj 62 392 dac~ 1 2, f 10;
#X obj 662 136 dac~ 3 4 5 6;
#X obj 783 135 dac~ 7 8 9 10;
#X obj 703 310 dac~ 27 28 29 30;
#X obj 566 238 snapshot~;
#X obj 594 171 loadbang;
#X obj 598 206 metro 1000;
#X obj 206 26 loadbang;
#X obj 206 133 pow~ 2;
#X obj 271 84 pow~ 2;
#X obj 565 262 print raw:;
#X obj 451 233 snapshot~;
#X obj 449 268 print lin:;
#X obj 316 227 snapshot~;
#X obj 316 262 print pow:;
#X obj 346 99 *~ 9.972;
#X obj 342 136 -~ 0.00045;
#X obj 209 107 float 2;
#X obj 58 176 osc~ 100;
#X obj 60 252 tempophon~;
#X obj 206 172 +~ 0.5;
#X obj 103 300 tempophon~;
#X obj 345 48 lop~ 200;
#X obj 172 253 float 3.45;
#X obj 688 61 osc~ 40;
#X obj 515 59 *~ 200;
#X obj 517 93 +~ 100;
#X obj 510 128 osc~ 100;
#X obj 258 481 t b a;
#X obj 157 456 midiout;
#X msg 161 396 248;
#X obj 577 331 metro 1 30 permin;
#X msg 769 385 248;
#X text 824 384 clock;
#X text 824 410 start;
#X text 825 437 continue;
#X text 826 459 stop;
#X msg 770 409 250;
#X msg 770 436 251;
#X msg 771 462 252, f 4;
#X msg 484 395 252;
#X msg 412 399 251;
#X obj 475 479 noteout;
#X msg 576 427 9, f 5;
#X msg 529 445 120, f 5;
#X floatatom 602 466 5 0 0 0 - - -, f 5;
#X msg 449 428 34;
#X msg 497 425 33;
#X obj 453 333 metro 1000;
#X obj 500 359 delay 100;
#X obj 160 368 metro 10;
#X msg 270 414 252;
#X msg 232 399 251, f 4;
#X obj 271 348 metro 1000;
#X obj 271 382 delay 50;
#X connect 1 0 25 0;
#X connect 1 1 28 0;
#X connect 7 0 13 0;
#X connect 9 0 7 0;
#X connect 9 0 14 0;
#X connect 9 0 16 0;
#X connect 10 0 20 0;
#X connect 10 0 26 0;
#X connect 10 0 34 0;
#X connect 10 0 46 0;
#X connect 10 0 47 0;
#X connect 10 0 53 0;
#X connect 10 0 56 0;
#X connect 11 0 16 0;
#X connect 11 0 23 0;
#X connect 14 0 15 0;
#X connect 16 0 17 0;
#X connect 18 0 19 0;
#X connect 19 0 11 1;
#X connect 19 0 14 0;
#X connect 20 0 11 0;
#X connect 21 0 22 0;
#X connect 22 0 24 0;
#X connect 23 0 22 1;
#X connect 25 0 7 0;
#X connect 25 0 18 0;
#X connect 26 0 24 1;
#X connect 27 0 4 0;
#X connect 27 0 4 1;
#X connect 27 0 4 2;
#X connect 27 0 4 3;
#X connect 27 0 5 0;
#X connect 27 0 5 1;
#X connect 27 0 5 2;
#X connect 27 0 5 3;
#X connect 28 0 29 0;
#X connect 29 0 30 0;
#X connect 30 0 3 0;
#X connect 33 0 32 0;
#X connect 46 0 45 2;
#X connect 47 0 45 1;
#X connect 49 0 45 0;
#X connect 50 0 45 0;
#X connect 51 0 44 0;
#X connect 51 0 49 0;
#X connect 51 0 52 0;
#X connect 52 0 43 0;
#X connect 52 0 50 0;
#X connect 53 0 33 0;
#X connect 54 0 32 0;
#X connect 55 0 32 0;
#X connect 56 0 55 0;
#X connect 56 0 57 0;
#X connect 57 0 54 0;
