#N canvas 1204 778 788 1053 10;
#X obj 67 194 delwrite~ \$0-audio 200;
#X obj 279 249 phasor~;
#X obj 170 660 outlet~;
#X obj 63 26 inlet~;
#X text 337 30 pitch_cv;
#X obj 279 227 *~ -20;
#X obj 279 30 inlet~;
#X obj 63 117 lop~ 8000;
#X obj 122 382 *~ 50;
#X obj 122 405 vd~ \$0-audio;
#X connect 1 0 8 0;
#X connect 3 0 7 0;
#X connect 5 0 1 0;
#X connect 6 0 5 0;
#X connect 7 0 0 0;
#X connect 8 0 9 0;
#X connect 9 0 2 0;
