#N canvas 2230 827 788 1053 10;
#X obj 279 249 phasor~;
#X obj 278 284 +~ 0.5;
#X obj 278 307 wrap~;
#X obj 67 382 -~ 0.5;
#X obj 67 421 cos~;
#X obj 67 402 *~ 0.5;
#X obj 122 405 vd~ \$0-audio;
#X obj 108 445 *~;
#X obj 265 384 -~ 0.5;
#X obj 265 423 cos~;
#X obj 265 404 *~ 0.5;
#X obj 320 407 vd~ \$0-audio;
#X obj 306 447 *~;
#X obj 171 492 +~;
#X obj 170 522 *~ 0.5;
#X obj 170 660 outlet~;
#X obj 63 26 inlet~;
#X text 337 30 pitch_cv;
#X obj 279 30 inlet~;
#X obj 63 117 lop~ 8000;
#X text 415 69 notes: midi to f - an das hanning window midi to f -
correlation zu window size tiefpass am Input rausnehmen/anpassen;
#X obj 456 439 snapshot~;
#X obj 455 463 print raw:;
#X obj 387 145 /~ 4;
#X text 335 227 frequenz der read ramp ist kehrwert der fenstergröße
;
#X text 372 385 Fenstergröße in ms;
#X obj 63 161 delwrite~ \$0-audio 400;
#X obj 277 226 *~ 20;
#X obj 321 385 *~ 100;
#X obj 124 385 *~ 100;
#X connect 0 0 1 0;
#X connect 0 0 3 0;
#X connect 0 0 29 0;
#X connect 1 0 2 0;
#X connect 2 0 8 0;
#X connect 2 0 28 0;
#X connect 3 0 5 0;
#X connect 4 0 7 0;
#X connect 5 0 4 0;
#X connect 6 0 7 1;
#X connect 7 0 13 0;
#X connect 8 0 10 0;
#X connect 9 0 12 0;
#X connect 10 0 9 0;
#X connect 11 0 12 1;
#X connect 12 0 13 1;
#X connect 13 0 14 0;
#X connect 14 0 15 0;
#X connect 16 0 19 0;
#X connect 18 0 27 0;
#X connect 19 0 26 0;
#X connect 21 0 22 0;
#X connect 27 0 0 0;
#X connect 28 0 11 0;
#X connect 29 0 6 0;
